<?xml version="1.0" standalone="no"?>
<!DOCTYPE svg PUBLIC "-//W3C//DTD SVG 20010904//EN"
 "http://www.w3.org/TR/2001/REC-SVG-20010904/DTD/svg10.dtd">
<svg version="1.0" xmlns="http://www.w3.org/2000/svg"
 width="259.000000pt" height="259.000000pt" viewBox="0 0 259.000000 259.000000"
 preserveAspectRatio="xMidYMid meet">
<metadata>
Created by potrace 1.14, written by Peter Selinger 2001-2017
</metadata>
<g transform="translate(0.000000,259.000000) scale(0.100000,-0.100000)"
fill="#000000" stroke="none">
<path d="M1236 2475 c-7 -8 -15 -12 -18 -10 -2 2 -41 -31 -86 -75 -45 -43 -82
-77 -82 -76 0 1 -38 -34 -85 -78 -157 -150 -235 -223 -235 -221 0 1 -32 -29
-71 -66 -40 -38 -73 -69 -75 -69 -1 0 -40 -35 -85 -77 -101 -96 -133 -126
-250 -233 -202 -187 -227 -213 -234 -253 -13 -66 2 -87 150 -222 48 -44 105
-97 126 -118 21 -20 40 -37 42 -37 2 0 32 -28 68 -63 56 -53 171 -160 319
-297 19 -18 84 -78 143 -134 152 -142 202 -188 230 -211 14 -11 23 -23 20 -27
-2 -5 1 -8 8 -8 7 0 24 -13 38 -28 38 -41 83 -70 117 -75 42 -6 95 12 121 39
12 13 25 24 28 24 3 0 28 22 57 50 28 27 48 50 44 50 -4 0 0 7 8 16 19 18 21
76 5 107 -6 12 -26 36 -44 52 -103 95 -244 227 -292 273 -30 28 -56 52 -58 52
-1 0 -30 27 -63 59 -33 33 -63 57 -66 53 -3 -3 -6 3 -6 13 0 10 -3 16 -6 13
-3 -4 -34 22 -68 55 -61 60 -217 205 -263 245 -13 10 -20 22 -16 26 3 3 1 6
-6 6 -7 0 -10 4 -6 9 3 5 1 12 -3 15 -16 10 -5 80 18 119 12 20 24 37 27 37 2
0 1 -6 -3 -12 -5 -9 -3 -9 9 1 9 7 14 17 11 22 -3 5 -2 8 3 7 9 -3 67 49 174
154 38 37 69 65 69 63 0 -2 26 22 59 53 121 118 221 208 226 204 3 -3 5 3 5
13 0 10 2 16 6 13 3 -3 29 17 59 46 29 28 90 85 135 126 45 41 88 87 96 102
21 39 17 91 -8 123 -29 37 -153 153 -167 156 -43 9 -113 6 -125 -6z"/>
<path d="M1619 2213 c-9 -2 -20 -14 -26 -26 -5 -13 -9 -375 -8 -904 0 -806 2
-884 17 -899 10 -11 25 -14 40 -11 24 7 34 15 228 197 123 115 224 210 286
266 156 143 235 216 274 254 25 25 61 58 80 73 51 43 69 71 74 115 7 52 -11
88 -77 148 -28 26 -88 82 -133 123 -84 79 -170 158 -265 245 -53 49 -246 228
-374 347 -66 61 -91 77 -116 72z"/>
</g>
</svg>
